<svg width="636" height="89" xmlns="http://www.w3.org/2000/svg">
  <title>
    aquent-logo-orange
  </title>
  <path d="M572.2 1.3v12.1h25.5v65.5h12.5V13.4h25.4V1.3h-63.4zm-56.1 39.9c0 5.1 0 9.6.1 13.8-2.3-3.3-4.7-6.7-4.7-6.7l-1.8-2.5-30.9-43-.4-.6-.7-1h-10.4v77.6h12.5V37.7c0-4.2 0-8.5-.1-12.9 3.1 4.4 6.9 9.9 6.9 9.9l.7 1 29.8 41.6.4.6.7 1h10.3V1.3H516l.1 39.9zM376 44.1h30.4V32H376V13.3h32.1v-12h-44.7v77.6h46.4V66.8h-33.9l.1-22.7zm-86.7 1.3c0 10.3-3.1 22.6-17.9 22.6-13.9 0-16.8-12.3-16.8-22.6V1.3h-12.5v44.3c0 31.2 20.3 34.6 29 34.6 19.2 0 30.7-13.1 30.7-35.1V1.3h-12.5v44.1zM148 68.4c-14.3 0-25.1-11.8-25.1-27.4 0-14.6 8-29.3 25.9-29.3 16.4 0 25 14 25 27.8-.1 17.3-10.4 28.9-25.8 28.9zm35.9 7.4c-3.9-.5-8.9-1.5-13.9-2.5 4.3-2.9 7.9-6.6 10.6-11.1 3.9-6.5 5.9-14.3 5.9-23.1 0-22.7-15.8-39.1-37.7-39.1-22.4 0-38.6 17.3-38.6 41.1 0 22.4 15.6 38.4 38 39 .6 0 1.2.2 1.9.4.1 0 1.5.5 1.5.5 9.4 2.6 19.9 5.1 29.5 7.2l1.3.3.5.1 1.7.4.6-2.2.4-1.2 1.4-4.8.5-1.6.8-2.8-2.8-.4-1.6-.2zm-156.3-24l1.7 14.5 14.1-1.8L41.7 50l-14.1 1.8zM69 73.5L41.3 2.8l-.1-.3-.5-1.2h-10L30 2.8l-.3.9L1 76.3l-1 2.6h13.4s19.2-50 22.1-57.7c1.8 4.6 4.3 11.1 4.3 11.1 15 39.2 16.5 42.9 16.7 43.4 0-.1-.1-.2-.1-.2l.4 1 .3.9.6 1.6h13.4l-1.3-3.4c0-.1-.8-2.1-.8-2.1z" fill="#F8971D" fill-rule="nonzero"/>
</svg>
