<svg xmlns="http://www.w3.org/2000/svg" xmlns:xlink="http://www.w3.org/1999/xlink" width="574" height="488" viewBox="0 0 574 488">
  <title>(GYM 015) Prototyping for Digital Products and Websites</title>
  <desc>Learn how to use prototypes as a communication and collaboration device for building digital products and websites.</desc>
  <path fill="#5CA5A0" d="M0 0h574v488H0V0z"/>
  <g fill-rule="evenodd" clip-rule="evenodd">
    <path fill="#315A5B" d="M60.662 378.23c-19.217 17.952 29.418 35.571 65.63 43.009 14.334 2.944 32.341 5 54.682 5 78.781 0 124.7 8.516 149.082 8.516C440.259 434.754 505 408.688 517 383c7.8-16.708-12.944-29.8-35-36-40.146-11.281-107.725-6.423-178.852-6.423-110.202 0-194.497-7.177-242.486 37.653z"/>
    <path fill="#2C4F4F" d="M268 420.841c12.828 1.2 77.931-1.392 90.544 0 54.668 6.031 91.848 1.18 116.562-7.571 13.751-4.87 29.246-31.87 30.541-33.27 4.2-4.56-12.647-40-107.647-44s-49.2 6-89.644 6C206.574 342 62 356.779 62 380c0 21.086 78.728 28.9 206 40.841z"/>
    <path fill="#274444" d="M136 402l3.227.749c8.325 1.931 30 6.947 31.773 7.251 11.206 1.924 24.136 1.852 59.15 6.158 16.026 1.971 34.432 1.1 49.85 0 8.691-.621 87.311-11.423 122.926-17.175C459.773 389.8 501 372 482 358.6c-13.325-9.39-103.921-21.6-192-21.6-61.025 0-167.533 21.6-167.533 21.6s-25.543 5.411-36.2 13.4c-4.947 3.707-.7 9.5 0 12.8C88.072 393.283 136 402 136 402z"/>
  </g>
  <path fill="#24152C" fill-rule="evenodd" d="M450.392 234.344c.318 73.117 4.085 147.765-11.918 148.728-8.923 5.695-83.878 10.58-152.292 10.909-70.251.339-134.074-3.981-148.788-5.981-18.222-.091-12.207-77.266-12.338-167.665.378-99.017-9.4-139.56 23.908-139.708 15.349-2.886 266.58-8.521 287.538-.511 16.258 3.53 13.588 84.796 13.89 154.228z" clip-rule="evenodd"/>
  <path fill="#E2E2E2" fill-rule="evenodd" d="M436.561 181.367l-2.525 179.82c-.109 2.218-1.624 4.118-3.763 4.717 0 0-34.573 10.072-136.979 10.072s-149.341-5.789-149.341-5.789c-2.153-.296-3.807-2.056-3.97-4.223 0 0-2.055-38.681-2.978-128-.118-11.277 1.9-132.814 1.9-132.814.125-4.53 3.706-8.204 8.231-8.447 0 0 108.248-4.729 144.244-4.703 38.1.028 73.668 2.4 115.677 1.387 2.035-.05 6.672-.036 12.855-.022 3.231.008 2.713.005 2.713.005 4.534.063 8.275 3.569 8.63 8.09l5.306 79.907z" clip-rule="evenodd"/>
  <defs>
    <filter id="a" width="122.004" height="160" x="298" y="14" filterUnits="userSpaceOnUse">
      <feColorMatrix values="1 0 0 0 0 0 1 0 0 0 0 0 1 0 0 0 0 0 1 0"/>
    </filter>
  </defs>
  <mask id="b" width="122.004" height="160" x="298" y="14" maskUnits="userSpaceOnUse">
    <path fill="#FFF" fill-rule="evenodd" d="M436.561 181.367l-2.525 179.82c-.109 2.218-1.624 4.118-3.763 4.717 0 0-34.573 10.072-136.979 10.072s-149.341-5.789-149.341-5.789c-2.153-.296-3.807-2.056-3.97-4.223 0 0-2.055-38.681-2.978-128-.118-11.277 1.9-132.814 1.9-132.814.125-4.53 3.706-8.204 8.231-8.447 0 0 108.248-4.729 144.244-4.703 38.1.028 73.668 2.4 115.677 1.387 2.035-.05 6.672-.036 12.855-.022 3.231.008 2.713.005 2.713.005 4.534.063 8.275 3.569 8.63 8.09l5.306 79.907z" clip-rule="evenodd" filter="url(#a)"/>
  </mask>
  <g mask="url(#b)">
    <path fill="#F9F9F9" fill-rule="evenodd" d="M299.868 22.468c-3.169 5.846-1.707 149.683 0 150.277 1.026.357 32.136 2.119 65.068.728 21.862-.923 50.536-.211 54.3-3.028.511-13.446-.624-37.345-1.134-53.494-1.386-43.853 3.783-59.34 1.134-94.876-4.923-3.348-31-8.048-54.3-8.075-30.521-.036-63.678 5.9-65.068 8.468z" clip-rule="evenodd"/>
  </g>
  <defs>
    <filter id="c" width="122" height="81.92" x="153.998" y="294" filterUnits="userSpaceOnUse">
      <feColorMatrix values="1 0 0 0 0 0 1 0 0 0 0 0 1 0 0 0 0 0 1 0"/>
    </filter>
  </defs>
  <mask id="d" width="122" height="81.92" x="153.998" y="294" maskUnits="userSpaceOnUse">
    <path fill="#FFF" fill-rule="evenodd" d="M436.561 181.367l-2.525 179.82c-.109 2.218-1.624 4.118-3.763 4.717 0 0-34.573 10.072-136.979 10.072s-149.341-5.789-149.341-5.789c-2.153-.296-3.807-2.056-3.97-4.223 0 0-2.055-38.681-2.978-128-.118-11.277 1.9-132.814 1.9-132.814.125-4.53 3.706-8.204 8.231-8.447 0 0 108.248-4.729 144.244-4.703 38.1.028 73.668 2.4 115.677 1.387 2.035-.05 6.672-.036 12.855-.022 3.231.008 2.713.005 2.713.005 4.534.063 8.275 3.569 8.63 8.09l5.306 79.907z" clip-rule="evenodd" filter="url(#c)"/>
  </mask>
  <g mask="url(#d)">
    <path fill="#F9F9F9" fill-rule="evenodd" d="M274.1 294.731c-1.043-.359-37.389-1.429-70.851-.034-22.214.926-44.943-.707-48.764 2.119-1.011 26.3-.16 47 0 74.434 0 0 20.278 1.709 34.513 2.375 29.025 1.356 60 2.225 78 2.225 1.579 0 4.1.032 6 .05 1.778.017 3 .02 3 .02.002-20.413-.427-80.684-1.898-81.189z" clip-rule="evenodd"/>
  </g>
  <path fill="#FFF" fill-rule="evenodd" d="M418.018 351.942c3.207-5.827 1.951-152.624.223-153.216-1.039-.356-37.239-1.42-70.567-.034-22.125.92-44.762 1.31-48.568 4.119-1.893 49.14-1.008 101.842.081 153.53 4.983 3.337 29.626.6 53.2.632 30.891.035 64.224-2.473 65.631-5.031z" clip-rule="evenodd"/>
  <g fill-rule="evenodd" clip-rule="evenodd">
    <path fill="#C9C9C9" d="M321.068 340.243c3.03.042 6.06-.128 9.067-.509 1.106-.146 1.923-1.105 1.892-2.22v-.059c-.074-1.66-1.469-2.953-3.13-2.9l-11.465.369c-1.711.097-3.12 1.381-3.375 3.076l.122-.984c-.216 1.47.801 2.836 2.271 3.052.117.017.235.027.353.028l4.265.147z"/>
    <path fill="#5CA5A0" d="M347.424 340.325c4.247.065 8.494-.085 12.725-.45 1.1-.095 1.923-1.051 1.851-2.153v-.058c-.133-1.668-1.526-2.954-3.2-2.951l-17.29.266c-1.717.076-3.152 1.33-3.457 3.021l.151-.983c-.26 1.416.677 2.775 2.093 3.035.151.028.305.042.459.043l6.668.23z"/>
    <path fill="#24152C" d="M377.424 340.325c4.247.065 8.494-.085 12.725-.45 1.1-.095 1.923-1.051 1.851-2.153v-.058c-.133-1.668-1.526-2.954-3.2-2.951l-17.29.266c-1.717.076-3.152 1.33-3.457 3.021l.151-.983c-.26 1.416.677 2.775 2.093 3.035.151.028.305.042.459.043l6.668.23z"/>
    <path fill="#5CA5A0" d="M396.13 319.381c-3.031-.041-6.06.129-9.067.51-1.106.146-1.923 1.105-1.891 2.22v.058c.074 1.661 1.469 2.954 3.131 2.9l11.464-.368c1.709-.098 3.115-1.38 3.372-3.072l-.122.983c.216-1.47-.801-2.836-2.271-3.052-.117-.017-.235-.027-.353-.028l-4.263-.151z"/>
    <path fill="#C9C9C9" d="M374.129 319.381c-3.031-.041-6.06.129-9.067.51-1.106.146-1.924 1.104-1.892 2.22v.058c.074 1.661 1.469 2.954 3.131 2.9l11.465-.368c1.708-.099 3.114-1.38 3.371-3.072l-.121.983c.215-1.471-.803-2.837-2.273-3.052-.116-.017-.233-.026-.351-.028l-4.263-.151z"/>
    <path fill="#24152C" d="M350.129 319.381c-3.031-.041-6.06.129-9.067.51-1.106.146-1.924 1.104-1.892 2.22v.058c.074 1.661 1.469 2.954 3.131 2.9l11.465-.368c1.708-.099 3.114-1.38 3.371-3.072l-.121.983c.215-1.471-.803-2.837-2.273-3.052-.116-.017-.233-.026-.351-.028l-4.263-.151z"/>
    <path fill="#5CA5A0" d="M325.13 319.381c-3.031-.041-6.06.129-9.067.51-1.106.146-1.923 1.105-1.891 2.22v.058c.074 1.661 1.469 2.954 3.131 2.9l11.464-.368c1.709-.098 3.115-1.38 3.372-3.072l-.122.983c.216-1.47-.801-2.836-2.271-3.052-.117-.017-.235-.027-.353-.028l-4.263-.151z"/>
    <path fill="#C9C9C9" d="M385.129 304.486c-3.03-.042-6.06.128-9.067.509-1.106.147-1.923 1.105-1.892 2.221v.058c.074 1.661 1.47 2.953 3.131 2.9l11.465-.369c1.709-.098 3.115-1.38 3.371-3.072l-.121.984c.215-1.471-.803-2.837-2.273-3.052-.116-.017-.233-.026-.351-.028l-4.263-.151z"/>
    <path fill="#5CA5A0" d="M358.771 304.508c-4.247-.065-8.494.086-12.725.451-1.1.095-1.923 1.051-1.851 2.153v.058c.13 1.669 1.526 2.956 3.2 2.951l17.29-.266c1.714-.077 3.147-1.33 3.452-3.019l-.15.983c.26-1.416-.677-2.775-2.093-3.035-.151-.028-.305-.042-.459-.043l-6.664-.233z"/>
    <path fill="#24152C" d="M328.771 304.508c-4.247-.065-8.494.086-12.725.451-1.1.095-1.923 1.051-1.851 2.153v.058c.13 1.669 1.526 2.956 3.2 2.951l17.29-.266c1.714-.077 3.147-1.33 3.452-3.019l-.15.983c.26-1.416-.677-2.775-2.093-3.035-.151-.028-.305-.042-.459-.043l-6.664-.233z"/>
  </g>
  <defs>
    <path id="e" d="M402.581 285.964c2.407-2.785 1.3-71.334 0-71.617-.78-.17-27.955-.679-52.975-.016-16.609.44-33.6.626-36.46 1.969-1.421 23.492-1.913 48.186.854 71.474 3.741 1.6 21.447 2.213 39.147 2.226 23.187.017 48.378-2.814 49.434-4.036z"/>
  </defs>
  <clipPath id="f">
    <use overflow="visible" xlink:href="#e"/>
  </clipPath>
  <g clip-path="url(#f)">
    <path fill="#E2E2E2" d="M339.287 260.4c2.215-1.443 14.779 14.854 16.5 14.686L385.765 246c1.3 2.612 13.382 13.243 18.185 19.329.255-21.112-.516-50.8-1.369-50.982-.78-.17-27.955-.679-52.975-.016-16.609.44-33.6.626-36.46 1.969-1.4 23.132-1.89 47.425.736 70.4 7.427-9.716 15.951-18.542 25.405-26.3z"/>
    <path fill="#C9C9C9" d="M405.913 268.857c0-.755-.758-2-1.963-3.528-4.8-6.086-16.883-16.717-18.185-19.329l-29.975 29.091c-1.724.168-14.288-16.129-16.5-14.686-9.451 7.756-17.975 16.579-25.4 26.292-.5.664-.994 1.333-1.482 2.013-9.629 13.4-17.225 30.537-16.328 34.026 1.333 5.18 27.263 2.642 59.718 2.642 14.267 0 48.536-3.863 48.726-5.285 1.876-14.128 1.455-34.311 1.389-51.236z"/>
  </g>
  <path fill="#FFF" fill-rule="evenodd" d="M273.809 265.267c3.852-5.169 1.8-153.94.071-154.537-1.041-.358-37.315-1.428-70.711-.033-22.17.925-47.527 1.834-47.527 1.834s-3.694 105.749 0 154.76c4.993 3.358 28.627 2.634 52.252 2.661 30.951.036 63.076-.877 65.915-4.685z" clip-rule="evenodd"/>
  <path fill="#C9C9C9" fill-rule="evenodd" d="M233.484 250.772c-2.448 2.231-5.314 1.8-8.095 2.107-8.658.948-17.343.665-26.025.476-7.691-.167-15.394.645-23.049.645s-3.485-5.458 0-5.328c8.609.316 26.991-.938 35.6-.62 2.483.093 4.35.672 6.828.392 4.609-.596 9.281-.52 13.868.228.428.081.989 1.406.873 2.1zm-61.475-15.704c1.827-1.8 6.379-1.8 9.716-2.107 10.392-.948 20.814-.665 31.234-.477 9.231.167 18.475-.644 27.662-.644s4.183 5.458 0 5.328c-10.331-.317-47.149.392-50.123.672-5.362.5-12.049.5-16.662-.672-.513-.081-1.967-1.407-1.827-2.1zm81.97-16.296c-3.265 2.231-7.086 1.8-10.793 2.107-11.545.948-23.125.665-34.7.476-10.255-.166-20.525.645-30.731.645s-4.648-5.458 0-5.328c11.478.316 35.987-.938 47.466-.62 3.311.093 5.8.672 9.1.392 6.154-.596 12.354-.52 18.491.228.573.081 1.323 1.406 1.167 2.1zm5.602-20.808c2.407-2.785 1.3-71.334 0-71.617-.78-.17-27.955-.679-52.975-.016-16.609.44-33.6.626-36.46 1.969-1.421 23.492-1.913 48.186.854 71.474 3.741 1.595 21.447 2.213 39.147 2.226 23.187.017 48.378-2.814 49.434-4.036z" clip-rule="evenodd"/>
  <defs>
    <filter id="g" width="110.001" height="80" x="167.999" y="158" filterUnits="userSpaceOnUse">
      <feColorMatrix values="1 0 0 0 0 0 1 0 0 0 0 0 1 0 0 0 0 0 1 0"/>
    </filter>
  </defs>
  <mask id="h" width="110.001" height="80" x="167.999" y="158" maskUnits="userSpaceOnUse">
    <path fill="#FFF" fill-rule="evenodd" d="M170.419 130.036c-2.407 2.785-1.3 71.334 0 71.617.78.17 27.955.679 52.975.016 16.609-.44 33.6-.626 36.46-1.969 1.421-23.492 1.913-48.186-.854-71.474-3.741-1.595-21.447-2.213-39.147-2.226-23.187-.017-48.378 2.814-49.434 4.036z" clip-rule="evenodd" filter="url(#g)"/>
  </mask>
  <g mask="url(#h)">
    <path fill="#E2E2E2" fill-rule="evenodd" d="M218.21 187.091c1.724.168 14.288-16.129 16.5-14.686 10.104 8.282 19.136 17.79 26.89 28.305 9.629 13.4 17.225 30.537 16.328 34.026-1.333 5.18-27.263 2.642-59.718 2.642-14.267 0-48.536-3.863-48.726-5.285-1.888-14.128-1.463-34.311-1.4-51.236.015-3.768 18.519-19.59 20.148-22.857l29.978 29.091z" clip-rule="evenodd"/>
  </g>
  <g stroke="#5CA5A0" stroke-width="8">
    <path fill="none" stroke-linecap="round" d="M239.022 162c-.692 25.333 14.917 38 46.827 38s50.294 10.667 55.151 32"/>
    <path fill="#5CA5A0" fill-rule="evenodd" stroke-linecap="round" stroke-linejoin="round" d="M325.139 229.883c3.328 3.57 5.884 6.473 7.667 8.71 1.783 2.237 3.932 5.237 6.445 9l6.27-9.009 5.465-9.62c-5.984.67-12.005.951-18.025.844-4.774-.164-7.381-.139-7.822.075z" clip-rule="evenodd"/>
    <path fill="#FFF" fill-rule="evenodd" d="M238.527 158c5.528 0 9.473-5.218 9.473-10.741S243.537 138 238.009 138 228 143.218 228 148.741 233 158 238.527 158z" clip-rule="evenodd"/>
  </g>
</svg>
