<svg width="512" height="512" xmlns="http://www.w3.org/2000/svg">
  <title>
    gymnasium-logo-square
  </title>
  <g fill="none" fill-rule="evenodd">
    <path fill="#222" d="M0 0h512v512H0z"/>
    <g fill="#FFF">
      <path d="M406.789331 456c-.745836 0-1.246944-.3312878-1.623747-1.0718136l-23.54821-52.4565055h-1.445056l-7.745816 50.8117589c-.081575.565138-.831296 1.3914089-1.689784 1.3914089h-11.882872c-.633184 0-1.134292-.1948752-1.452826-.5651381-.341842-.3936479-.466148-.974376-.369034-1.6837217l15.709166-89.01898998C372.791651 363.05622357 373.032494 362 374.438705 362h2.109317c.734182 0 1.324635.34298035 1.619862.93540095l29.231323 62.93299605h1.289674l29.239092-62.94858607c.322419-.63919065.804104-.91981093 1.615978-.91981093h2.105432c1.406211 0 1.647054 1.05622357 1.689784 1.37971639l15.588744 89.06965751c.151498.7054482.062153 1.2666888-.248612 1.6564392-.299111.3663654-.811873.5690356-1.445057.5690356H445.21541c-.870142 0-1.650938-.8613484-1.829628-1.477154l-7.866237-50.7260138h-1.448941l-23.299598 52.4876855C410.588432 455.497222 410.095092 456 409.170567 456h-2.381236M215 419.5240138v-54.71713349C215 363.87829086 215.875969 363 216.806202 363h12.515503c1.116279 0 1.810078.9363277 1.810078 1.80688031v53.79628229c0 11.9904113 8.325581 20.6881992 19.802326 20.6881992 11.554263 0 19.934108-8.6474893 19.934108-20.556649v-53.92783249c0-.87055261.689923-1.80688031 1.806202-1.80688031h12.523255c.926357 0 1.802326.87829086 1.802326 1.80688031v54.71713349C287 439.4190428 271.158915 455 250.934109 455 230.782946 455 215 439.4190428 215 419.5240138zM87.82510992 454C86.88715193 454 86 453.1225361 86 452.1945985v-87.38143185C86 363.88134653 86.88715193 363 87.82510992 363h12.35759648c.937958 0 1.8172936.88134653 1.8172936 1.81316665v87.38143185C102 453.1225361 101.1206644 454 100.1827064 454H87.82510992"/>
    </g>
    <path d="M407.485906 303c-16.968962 0-26.647298-8.4497885-28.412967-10.1413052-1.143627-1.1536612-1.456579-1.4654615-.529314-3.1219007l4.717464-8.2081433c.583405-1.0328385 1.510671-1.1848412 2.01294-1.1848412.533177 0 1.054764.1675927 1.425671.4599055l.409542.2728252c7.734941 5.2928104 14.596708 8.0873207 19.851213 8.0873207 7.093583 0 12.645586-4.7861348 12.645586-10.9013185 0-6.7037068-5.115416-11.6574343-17.111916-16.5488017-10.416284-4.2482793-24.263452-11.7704619-24.263452-27.9723858 0-11.9146695 9.033113-24.741355 28.865008-24.741355 13.630806 0 23.923455 7.28053736 25.847532 8.73820383.486814.30010777.811357.81457837.946583 1.45376897.150681.7249357.034773 1.453769-.312952 1.9526495l-4.995644 7.5728501c-.679995 1.0289411-1.715441 1.6993117-2.631116 1.6993117-.359316 0-.695449-.1013351-1.000674-.3079028-4.443149-2.8490753-12.46786-7.4013599-18.645768-7.4013599-7.66926 0-12.247634 5.0667551-12.247634 9.9737125 0 6.3529315 4.613146 10.842856 15.929651 15.4925782C423.346013 253.5913426 437 261.3045029 437 277.4674517 437 289.8420267 426.65326 303 407.485906 303" fill="#FFF"/>
    <g fill="#F8971D" fill-rule="nonzero">
      <path d="M239.8586957 268.2410147L241.9769027 285.5l17.229619-2.119862L257.08064 266.125l-17.2219443 2.1160147"/>
      <path d="M255.579696 208.03074262L242.9276637 208 206 299.6437485h16.2477115l26.8659018-68.6136837 26.8966014 68.6136837h16.2400366l-36.6705553-91.61300588"/>
    </g>
    <path d="M127.3094466 303l-55.4554531-60.8166515h-1.0106933l-.1287756.6976532v56.9815076c0 .8691434-.6946077 1.8123394-1.8223697 1.8123394H56.82236975C55.8819177 301.6748487 55 300.7940128 55 299.8625093v-89.17489009C55 209.7872958 55.85460166 209 56.82236975 209h3.00866613l55.19009732 58.5638942h1.006791l.1365802-.6976532v-54.72095532c0-.87693839.6907054-1.82013434 1.8145651-1.82013434h12.2063653c.9365498 0 1.8145652.88473339 1.8145652 1.82013434v89.17489012C132 302.2127042 131.1532029 303 130.1854348 303h-2.8759882" fill="#FFF"/>
    <g fill="#FFF">
      <path d="M406.789331 150c-.745836 0-1.246944-.3312878-1.623747-1.0718136l-23.54821-52.4565055h-1.445056l-7.745816 50.8117589c-.081575.565138-.831296 1.3914089-1.689784 1.3914089h-11.882872c-.633184 0-1.134292-.1948752-1.452826-.5651381-.341842-.3936479-.466148-.974376-.369034-1.6837217l15.709166-89.01898998C372.791651 57.05622357 373.032494 56 374.438705 56h2.109317c.734182 0 1.324635.34298035 1.619862.93540095l29.231323 62.93299605h1.289674l29.239092-62.94858607C438.250392 56.28062028 438.732077 56 439.543951 56h2.105432c1.406211 0 1.647054 1.05622357 1.689784 1.37971639l15.588744 89.06965751c.151498.7054482.062153 1.2666888-.248612 1.6564392-.299111.3663654-.811873.5690356-1.445057.5690356H445.21541c-.870142 0-1.650938-.8613484-1.829628-1.477154l-7.866237-50.7260138h-1.448941l-23.299598 52.4876855C410.588432 149.497222 410.095092 150 409.170567 150h-2.381236M244.243975 148c-1.111718 0-1.801215-.9395853-1.801215-1.8054015v-42.1959211l-30.148077-44.26145579c-.360243-.58627016-.395105-1.29290042-.077472-1.86364025C212.527098 57.31837187 213.115882 57 213.828621 57h13.429703c.592658 0 1.084603.2873112 1.541685.90852462l21.630074 31.16550048 21.641694-31.1849134C272.524986 57.29119379 273.020804 57 273.613462 57h13.565279c.708865 0 1.29765.31837187 1.607536.87746395.317634.56685724.278898 1.2734875-.100713 1.88693574L258.16175 103.8627869v42.3318116c0 .9279376-.871556 1.8054015-1.797342 1.8054015h-12.120433M100.8149302 150C74.5635311 150 54 129.4428666 54 103.1990533 54 77.1738083 75.0034552 56 100.8149302 56c11.3562703 0 22.6658231 4.32843381 31.8380456 12.1734762.3893134.3903006.6229014.9133034.6229014 1.4441122 0 .4683608-.1829773.8937884-.5216799 1.241156l-8.2184048 8.6373526c-.3815271.3785916-.7786267.5776449-1.16794.5776449-.4048859 0-.84481-.2107623-1.3080929-.620578-5.7229062-5.077811-12.9836002-7.8723634-20.4467371-7.8723634-16.7287946 0-30.3469755 14.1249793-30.3469755 31.4894536 0 17.1381 13.6726848 31.087444 30.4793421 31.087444 7.6227553 0 13.4974938-2.3613188 16.0085649-3.3721974l.4360309-.1756352v-12.4544926h-11.2823008c-1.0355735 0-1.8180934-.7259592-1.8180934-1.6860987v-10.4795715c0-1.0733267.7474817-1.8227039 1.8180934-1.8227039h25.4104822c.8954207 0 1.6818337.8547584 1.6818337 1.8227039v33.9678625c0 .647899-.2647331 1.1748048-.7747336 1.5533964C133.1318312 141.5656037 119.5681542 150 100.8149302 150"/>
    </g>
  </g>
</svg>
