<svg xmlns="http://www.w3.org/2000/svg" width="208" height="24" viewBox="0 0 208 24" role="img">
  <title>Gymnasium Logo (White/Knockout/Reverse)</title>
  <g fill="none">
    <path fill="#FFF" d="M194.640215 24c-.19184 0-.320065-.0845841-.415488-.2736545l-6.02557-13.3931504h-.369764l-1.982017 12.9732151c-.020874.1442905-.212714.3552533-.432386.3552533h-3.040617c-.16202 0-.290245-.0497554-.371752-.1442906-.087471-.1005058-.119279-.2487768-.094429-.4298864L185.927889.35923377C185.940811.2696741 186.002438 0 186.362263 0h.539737c.187864 0 .337956.08756945.414494.23882577l7.479777 16.06799903h.330005L202.608042.23484534C202.689549.07164774 202.812804 0 203.020548 0h.539737c.359824 0 .421451.2696741.432385.35226802l3.988884 22.74118918c.038765.1801144.015904.3234099-.063616.4229206-.076537.0935401-.207744.1452857-.369764.1452857h-3.075406c-.222654 0-.422446-.2199187-.46817-.3771457l-2.01283-12.9513227h-.370759l-5.961954 13.4011112c-.046718.1373248-.172954.2656937-.409524.2656937h-.609316m-26.386469-.3383365c-5.167756 0-9.215285-4.0072975-9.215285-9.1241397V.46471515c0-.23882577.224642-.46471515.4632-.46471515h3.209595c.286269 0 .464193.24081599.464193.46471515V14.3006883c0 3.0838378 2.135092 5.3208392 5.078297 5.3208392 2.963085 0 5.112093-2.224065 5.112093-5.2870056V.46471515C173.365839.240816 173.542769 0 173.829038 0h3.211583c.237564 0 .462206.22588938.462206.46471515V14.5375238c0 5.1168422-4.062439 9.1241397-9.249081 9.1241397m-19.684985-.3383365c-.238558 0-.464194-.2248943-.464194-.462725V.46471515c0-.23882577.225636-.46471515.464194-.46471515h3.142997c.238558 0 .462206.22588938.462206.46471515V22.860602c0 .2378307-.223648.462725-.462206.462725h-3.142997M134.08584 24c-4.365605 0-6.855551-2.1573928-7.309805-2.5892694-.294221-.2945518-.374734-.3741604-.136177-.797081l1.213663-2.0956962c.150092-.2637035.38865-.3025127.517869-.3025127.13717 0 .271359.0427897.366782.1174227l.105363.0696575c1.989969 1.3513559 3.755296 2.0648479 5.107123 2.0648479 1.824966 0 3.25333-1.2219919 3.25333-2.7833154 0-1.7115847-1.316043-2.9763662-4.402383-4.225226-2.679798-1.084667-6.24226-3.0052243-6.24226-7.1418857C126.559345 3.27489842 128.883295 0 133.985447 0c3.506798 0 6.154789 1.8588606 6.649796 2.23103077.125243.07662326.208738.20797744.243528.37117505.038765.18508998.008946.37117506-.080513.4985488l-1.28523 1.93349366c-.174942.26270835-.441332.43386682-.676908.43386682-.092441 0-.178918-.02587279-.257443-.07861348-1.143089-.7274235-3.207607-1.88970893-4.796998-1.88970893-1.973071 0-3.150949 1.2936396-3.150949 2.5464798 0 1.62202505 1.186824 2.76838876 4.098222 3.95555191 3.437219 1.3831992 6.949981 3.3525168 6.949981 7.4792271 0 3.159466-2.661906 6.5189485-7.593093 6.5189485m-38.1359483 0L81.8242943 8.47234431h-.2574435l-.0328017.17812422V23.1989386c0 .2219089-.1769302.4627249-.4641935.4627249h-3.0744122c-.2395517 0-.4641935-.2248943-.4641935-.4627249V.4308815c0-.2298698.2176839-.4308815.4641935-.4308815h.7663666l14.0580059 14.9524836h.2564496l.0347896-.1781242V.80305166c0-.22389916.1759363-.46471515.4622056-.46471515h3.1092019c.2385577 0 .4622055.22588938.4622055.46471515V23.5711087c0 .2278796-.2156959.4288913-.4622055.4288913h-.7325709m-37.4863593 0c-.1908462 0-.319071-.0845841-.415488-.2736545l-6.0255697-13.3931504h-.3697645l-1.9820168 12.9732151c-.0208738.1442905-.2127139.3552533-.4323858.3552533H46.197691c-.1620204 0-.2902452-.0497554-.3717524-.1442906-.0874711-.1005058-.1192788-.2487768-.0944291-.4298864L49.7512066.35923377C49.7641285.2696741 49.8257559 0 50.1855804 0h.5397368c.1878642 0 .3389507.08756945.414494.23882577l7.4797776 16.06799903h.3300049L66.4313593.23484534C66.5138605.07164774 66.6371153 0 66.8448593 0h.5387427c.3598246 0 .421452.2696741.4323859.35226802l3.9888834 22.74118918c.0387656.1801144.0159038.3234099-.0636154.4229206-.0765373.0935401-.207744.1452857-.3697644.1452857h-3.0754063c-.2226538 0-.4224459-.2199187-.4681694-.3771457l-2.0128306-12.9513227h-.3707584l-5.9619543 13.4011112C59.4356549 23.8716311 59.3094182 24 59.0728485 24h-.6093161m-26.3337873-.676673c-.2852752 0-.4622055-.240816-.4622055-.462725V12.0457749L23.9313125.7015507c-.0924411-.1502612-.1013871-.33137075-.0198798-.47765154C23.9909519.08159881 24.1420384 0 24.3249327 0h3.4461646c.1520805 0 .2783173.07363795.3956082.23285513l5.5504423 7.98772701L39.270572.22787959C39.3868689.07463305 39.5140997 0 39.6661802 0h3.4809543c.1819003 0 .3329868.0815988.4125061.22489427.0815072.14528568.0715673.32639522-.0258438.4836222L35.7011526 12.0109462V22.860602c0 .2378307-.2236479.462725-.4612116.462725h-3.1101959m-20.1770107.6428393C5.2502572 23.9661663 0 18.7249357 0 12.0338337 0 5.39845758 5.36257812 0 11.9527344 0c2.8994699 0 5.787012 1.10357409 8.1288533 3.10373995.099399.09951073.1590385.23285512.1590385.36818973 0 .11941289-.0467176.22787959-.1331947.31644415l-2.0983137 2.20217265c-.0974111.09652542-.1987981.14727589-.2981972.14727589-.103375 0-.2156959-.0537358-.3339807-.15822207-1.4611659-1.29463471-3.314958-2.0071316-5.2204375-2.0071316-4.27117669 0-7.74815505 3.60129364-7.74815505 8.0285264 0 4.3695166 3.49089422 7.9260304 7.78195075 7.9260304 1.9462331 0 3.4461646-.60204 4.0872884-.8597728l.1113269-.0447799v-3.1753876h-2.8805841c-.2644014 0-.4641935-.18509-.4641935-.4298864v-2.6718634c0-.2736545.1908461-.4647151.4641935-.4647151h6.4877752c.2286178 0 .4294039.2179285.4294039.4647151v8.6604196c0 .1651879-.0675914.2995274-.1978041.3960528-.0238558.0139315-3.4869183 2.1643585-8.2749699 2.1643585"/>
    <g fill="#F8971D">
      <path d="M109.75 15.5460683L110.29740182 20 114.75 19.4529388 114.2006148 15 109.75 15.5460683"/>
      <path d="M113.8127304.00793358L110.54310409 0 101 23.6499996h4.1988468l6.9428735-17.70675708 6.9508071 17.70675708h4.1968634L113.8127304.00793358"/>
    </g>
  </g>
</svg>
