<svg xmlns="http://www.w3.org/2000/svg" width="32" height="32" viewBox="0 0 32 32">
  <title>GitHub</title>
  <path fill="#FFF" fill-rule="evenodd" d="M15.9991713 3C8.54475138 3 2.5 8.96836451 2.5 16.3302202c0 5.8881754 3.86767956 10.8844509 9.2328729 12.6469759.6754144.1219202.921547-.2888447.921547-.6423316 0-.3166653-.0116022-1.1545602-.0182321-2.2673893-3.75497233.8059828-4.54723752-1.7862545-4.54723752-1.7862545-.6140884-1.5399591-1.49917127-1.9499057-1.49917127-1.9499057-1.22569061-.8272576.09281768-.8100742.09281768-.8100742 1.35497237.0940996 2.06767955 1.3730348 2.06767955 1.3730348 1.20414365 2.0374592 3.15911606 1.4491327 3.92900556 1.1079196.1226519-.8616243.4707182-1.4491326.856906-1.7821631-2.9975138-.3363035-6.14917123-1.4794082-6.14917123-6.5877849 0-1.4548604.5262431-2.6446057 1.38977901-3.5766001-.13922652-.3371218-.60248619-1.6921549.13176796-3.52668645 0 0 1.13370166-.3592147 3.71270716 1.36567046 1.0765194-.29539067 2.231768-.44349514 3.379558-.44840468 1.1461326.00490954 2.3013812.15301401 3.379558.44840468 2.5773481-1.72488516 3.7085636-1.36567046 3.7085636-1.36567046.7367403 1.83453155.2734806 3.18956465.1342541 3.52668645.8651934.9319944 1.3881216 2.1217397 1.3881216 3.5766001 0 5.1206506-3.1566299 6.2473901-6.1640884 6.5779658.4848066.4107649.9165746 1.2249303.9165746 2.4678623 0 1.7821631-.0165746 3.2198401-.0165746 3.6567892 0 .3559417.2428176.7707979.9281768.640695C25.6348066 27.2097615 29.5 22.216759 29.5 16.3302202 29.5 8.96836451 23.4552486 3 15.9991713 3"/>
</svg>
