<svg xmlns="http://www.w3.org/2000/svg" width="32" height="32" viewBox="0 0 32 32" role="img">
  <title>Medium</title>
  <path fill="#FFF" fill-rule="nonzero" d="M5.32026144 9.48794826c.03478786-.34017462-.09628587-.67639939-.35294118-.9053498l-2.61437908-3.11699V5h8.11764706L16.745098 18.6190475 22.261438 5H30v.46560847l-2.2352941 2.12110522c-.1927069.14537909-.2882993.38431993-.248366.6208113V23.7924751c-.0399333.2364913.0556591.4754321.248366.6208112l2.1830066 2.1211053V27H18.9673203v-.4656084l2.261438-2.1728395c.2222221-.2198708.2222221-.2845385.2222221-.6208113V11.14344504L15.1633987 26.9482657h-.8496732L6.99346404 11.14344504V21.7360376c-.06103367.4453424.08841197.8937047.40522876 1.2157555l2.94117647 3.5308642v.4656084H2v-.4656084l2.94117647-3.5308642c.31451009-.3225847.45524144-.7739213.37908497-1.2157555V9.48794826z"/>
</svg>
