<svg xmlns="http://www.w3.org/2000/svg" width="32" height="32" viewBox="0 0 32 32" role="img">
  <title>YouTube</title>
  <path fill="#FFF" fill-rule="evenodd" d="M13.1363636 19.9397628v-8.27478256l7.3181819 4.1375494-7.3181819 4.13723316zm16.2785-10.87841893c-.322-1.20505929-1.2708181-2.1539921-2.4754545-2.47604743C24.7558864 6 16 6 16 6s-8.75588636 0-10.93940909.58529644c-1.20463636.32205534-2.15345455 1.27098814-2.47545455 2.47604743C2 11.24537549 2 15.80237154 2 15.80237154s0 4.55683796.58513636 6.74102766c.322 1.2050593 1.27081819 2.1539921 2.47545455 2.4762055C7.24411364 25.6047431 16 25.6047431 16 25.6047431s8.7558864 0 10.9394091-.5851384c1.2046364-.3222134 2.1534545-1.2711462 2.4754545-2.4762055C30 20.3592095 30 15.80237154 30 15.80237154s0-4.55699605-.5851364-6.74102767z"/>
</svg>
