<svg xmlns="http://www.w3.org/2000/svg" width="32" height="32" viewBox="0 0 32 32" role="img">
  <title>LinkedIn</title>
  <path fill="#FFF" fill-rule="evenodd" d="M27 27h-4.5584663v-7.1465785c0-1.7038881-.0290293-3.8961898-2.3684557-3.8961898-2.3727248 0-2.7347383 1.8569985-2.7347383 3.7747279V27h-4.5533434V12.3048212h4.3697753v2.0092535h.0631816c.6079093-1.1555988 2.0952381-2.3736392 4.3125703-2.3736392 4.6165251 0 5.4694765 3.042535 5.4694765 7.000311V27zM7.64508868 10.2972784C6.18081267 10.2972784 5 9.11088647 5 7.64821151 5 6.18639191 6.18081267 5 7.64508868 5c1.45829937 0 2.64167342 1.18639191 2.64167342 2.64821151 0 1.46267496-1.18337405 2.64906689-2.64167342 2.64906689zM5.36201343 27h4.56358908V12.3048212H5.36201343V27z"/>
</svg>
