<svg xmlns="http://www.w3.org/2000/svg" width="32" height="32" viewBox="0 0 32 32" role="img">
  <title>Instagram</title>
  <g fill="#FFF" fill-rule="evenodd">
    <path d="M15.9959246 3.00820238c-3.5295 0-3.97206746.01496032-5.35821825.07820635-1.38326191.06309127-2.32798016.28280159-3.15461508.6040873-.85459524.33206746-1.57934524.77644048-2.30187698 1.49892064-.72248016.72253174-1.16685318 1.44728174-1.49892064 2.30187698-.32128571.82663492-.54099603 1.77135318-.6040873 3.15461508C3.01496032 12.03205952 3 12.47462698 3 16.004127c0 3.5294484.01496032 3.9720159.07820635 5.3581667.06309127 1.3832619.28280159 2.3279801.6040873 3.154615.33206746.8545953.77644048 1.5793453 1.49892064 2.301877.72253174.7224802 1.44728174 1.1668532 2.30187698 1.4989722.82663492.3212342 1.77135317.5409445 3.15461508.6040358C12.02385714 28.9850397 12.4664246 29 15.9959246 29c3.5294484 0 3.9720159-.0149603 5.3581667-.0782063 1.3832619-.0630913 2.3279801-.2828016 3.154615-.6040358.8545953-.332119 1.5793453-.776492 2.301877-1.4989722.7224802-.7225317 1.1668532-1.4472817 1.4989723-2.301877.3212341-.8266349.5409444-1.7713531.6040357-3.154615.063246-1.3861508.0782063-1.8287183.0782063-5.3581667 0-3.52950002-.0149603-3.97206748-.0782063-5.35821827-.0630913-1.3832619-.2828016-2.32798016-.6040357-3.15461508-.3321191-.85459524-.7764921-1.57934524-1.4989723-2.30187698-.7225317-.72248016-1.4472817-1.16685318-2.301877-1.49892064-.8266349-.32128571-1.7713531-.54099603-3.154615-.6040873-1.3861508-.06324603-1.8287183-.07820635-5.3581667-.07820635zm0 2.34159921c3.4700198 0 3.8810675.01325793 5.2514325.07578174 1.2670873.05777778 1.9552104.26949207 2.4131508.44746826.6066151.23575397 1.0395358.51736904 1.4942778.9721627.4547937.45474206.7364087.88766269.9721627 1.49427777.1779762.45794048.3896905 1.1460635.4474683 2.4131508.0625238 1.37036508.0757817 1.7814127.0757817 5.25148414 0 3.4700198-.0132579 3.8810674-.0757817 5.2514325-.0577778 1.2670873-.2694921 1.9552103-.4474683 2.4131508-.235754.6066151-.517369 1.0395357-.9721627 1.4942778-.454742.4547936-.8876627.7364087-1.4942778.9721627-.4579404.1779762-1.1460635.3896905-2.4131508.4474682-1.3701587.0625239-1.7811547.0757818-5.2514325.0757818-3.47032936 0-3.88127381-.0132579-5.25148412-.0757818-1.26708731-.0577777-1.95521032-.269492-2.4131508-.4474682-.60661508-.235754-1.03953571-.5173691-1.49427778-.9721627-.45474206-.4547421-.73640873-.8876627-.97216269-1.4942778-.17797619-.4579405-.38969048-1.1460635-.44746826-2.4131508-.06252381-1.3703651-.07578174-1.7814127-.07578174-5.2514325 0-3.47007144.01325793-3.88111906.07578174-5.25148414.05777778-1.2670873.26949207-1.95521032.44746826-2.4131508.23575396-.60661508.51736904-1.03953571.97216269-1.49427777.45474207-.45479366.8876627-.73640873 1.49427778-.9721627.45794048-.17797619 1.14606349-.38969048 2.4131508-.44746826 1.37036508-.06252381 1.78141269-.07578174 5.25148412-.07578174z"/>
    <path d="M15.9959246 20.3360675c-2.3925159 0-4.33199206-1.9394762-4.33199206-4.3319405 0-2.3925159 1.93947616-4.33199208 4.33199206-4.33199208 2.3924643 0 4.3319405 1.93947618 4.3319405 4.33199208 0 2.3924643-1.9394762 4.3319405-4.3319405 4.3319405zm0-11.00553179c-3.68575793 0-6.67359127 2.98783334-6.67359127 6.67359129 0 3.6857063 2.98783334 6.6735397 6.67359127 6.6735397 3.6857064 0 6.6735397-2.9878334 6.6735397-6.6735397 0-3.68575795-2.9878333-6.67359129-6.6735397-6.67359129zM24.4926627 9.06687302c0 .86130158-.6982341 1.55948412-1.5595357 1.55948412-.86125 0-1.5594841-.69818254-1.5594841-1.55948412 0-.86130159.6982341-1.55953572 1.5594841-1.55953572.8613016 0 1.5595357.69823413 1.5595357 1.55953572"/>
  </g>
</svg>
