<svg xmlns="http://www.w3.org/2000/svg" width="32" height="32" viewBox="0 0 32 32" role="img">
  <title>Twitter</title>
  <path fill="#FFF" fill-rule="nonzero" d="M10.79551821 27.5c10.56582629 0 16.34733889-8.851378 16.34733889-16.51427165 0-.24901575 0-.4980315-.0112044-.74704725C28.2521008 9.42372047 29.2268908 8.39370079 30 7.22785433c-1.0308123.4640748-2.140056.76968504-3.3053221.91683071 1.187675-.71309055 2.0952381-1.85629921 2.5322129-3.21456693-1.1092437.66781496-2.3417367 1.14320866-3.6526611 1.40354331C24.5210084 5.20177165 23.0308123 4.5 21.3837535 4.5c-3.1708683 0-5.7478992 2.60334646-5.7478992 5.80659449 0 .4527559.0560225.89419291.1456583 1.32431102-4.77310924-.23769685-9.00840336-2.55807086-11.84313725-6.06692913-.4929972.86023622-.77310924 1.85629921-.77310924 2.92027559 0 2.01476378 1.01960784 3.79183071 2.55462185 4.83316929-.94117648-.03395669-1.82633054-.29429134-2.59943978-.72440945v.07923228c0 2.80708661 1.98319328 5.16141731 4.60504202 5.69340551-.48179272.1358268-.9859944.2037402-1.51260505.2037402-.3697479 0-.72829131-.0339567-1.07563025-.1018701.72829132 2.3090551 2.85714286 3.984252 5.36694678 4.0295275-1.97198879 1.5620079-4.44817927 2.4901575-7.1372549 2.4901575-.45938376 0-.9187675-.0226378-1.36694678-.0792323C4.53221289 26.5378937 7.55742297 27.5 10.79551821 27.5z"/>
</svg>
