<svg width="122" height="144" xmlns="http://www.w3.org/2000/svg">
  <title>
    vitamin-talent-logo-black
  </title>
  <path d="M79.8953865 73.0983557l-1.0054924-3.7202739 2.3126326-.6032877-1.7093372-6.4350685c-.7038447-2.5136986-2.0109849-3.519178-4.0219698-3.0164383-1.1060417.3016438-1.8098864.9049315-2.2120834 1.910411-.402197 1.0054794-.402197 2.2120547 0 3.8208218l1.5082387 5.530137 2.4131819-.6032877 1.0054924 3.720274-8.4461367 2.3126027-1.0054924-3.7202739 2.3126326-.6032877-1.7093371-6.4350685c-.7038448-2.5136986-2.010985-3.519178-4.0219699-3.0164383-1.1060417.3016438-1.8098864.9049315-2.2120834 1.9104109-.402197 1.0054795-.402197 2.2120548 0 3.8208219l1.5082387 5.530137 2.3126327-.6032877 1.0054924 3.720274-8.5466859 2.3126027-1.0054925-3.720274 2.3126327-.6032876-2.6142804-9.8536986-2.3126327.6032877-1.0054924-3.720274 6.133504-1.6087671.6032955 2.3126027c.2010985-1.0054794.7038447-1.809863 1.3071402-2.5136986.6032954-.6032876 1.5082387-1.1060274 2.6142804-1.4076712 1.1060417-.3016438 2.1115341-.3016438 3.0164773 0 .9049433.3016438 1.8098865.8043836 2.6142804 1.7093151.5027463-1.2065754 1.1060418-2.2120548 1.8098865-2.9158904.7038447-.7038356 1.5082387-1.2065754 2.6142804-1.5082192 1.9104357-.5027397 3.5192236-.3016438 4.926913.7038356 1.4076895.9049315 2.413182 2.6142466 3.0164774 5.1279452l1.7093372 6.5356164 2.4131819-.6032877 1.0054925 3.720274-8.6472352 1.9104109zm9.8538261-2.6142465l-1.0054924-3.720274 2.3126326-.6032877-2.6142804-9.8536985-4.926913 1.3071232s-.2010985-.7038356-1.3071402-1.809863c-1.0054925-1.0054794-1.8098865-1.3071232-1.8098865-1.3071232l10.8593186-3.0164384 3.6197729 13.5739725 2.3126327-.6032876 1.0054924 3.7202739-8.4461367 2.3126028zm.1005493-24.3326026l1.0054925 3.8208219-3.8208714 1.0054794-1.0054925-3.8208219 3.8208714-1.0054794zM48.4234725 70.0819174c-.402197-.6032877-.9049433-1.0054795-1.5082387-1.3071233-.6032955-.3016438-1.206591-.5027397-1.9104357-.6032877-.7038447-.1005479-1.4076895 0-2.1115342.2010959-.7038447.2010959-1.3071402.5027397-1.8098864.9049315-.5027463.4021918-1.0054925.9049315-1.3071402 1.5082192-.3016478.6032877-.5027463 1.2065753-.6032955 1.9104109-.1005492.7038356 0 1.4076713.2010985 2.2120548.2010985.8043836.5027462 1.4076712.9049432 2.0109589.402197.6032877.9049432 1.0054795 1.5082387 1.3071233.6032955.3016438 1.206591.6032877 1.9104357.7038356.7038447.1005479 1.4076894 0 2.1115342-.1005479.7038447-.2010959 1.4076894-.5027398 1.9104356-.9049315.6032955-.4021918 1.0054925-.9049315 1.3071402-1.5082192.3016478-.6032877.5027463-1.2065754.6032955-1.910411.1005493-.7038356 0-1.4076712-.2010985-2.2120547-.2010985-1.0054795-.6032955-1.6087672-1.0054924-2.2120548zm3.2175758 10.6580821l-.5027462-2.0109589c-.6032955 1.0054795-1.3071402 1.910411-2.1115342 2.4131507-.7038447.6032876-1.6087879 1.0054794-2.7148296 1.3071233-1.3071402.3016438-2.5137312.4021917-3.7203221.3016438-1.206591-.100548-2.3126327-.5027397-3.3181252-1.1060274-1.0054924-.6032877-1.9104356-1.4076712-2.6142804-2.3126027-.7038447-1.0054795-1.3071402-2.1115069-1.6087879-3.4186301-.3016477-1.3071233-.402197-2.5136987-.3016477-3.8208219.1005492-1.2065754.5027462-2.3126028 1.1060417-3.3180822.6032955-1.0054795 1.3071402-1.910411 2.3126326-2.6142466 1.0054925-.7038356 2.1115342-1.3071232 3.4186744-1.6087671 1.206591-.3016438 2.2120834-.4021918 3.1170266-.3016438.9049433.1005479 1.9104357.5027397 2.9159282 1.2065753l-.6032955-2.1115068 6.133504-1.6087671 1.0054925 3.7202739-2.3126327.6032877 2.6142804 9.8536986 2.4131819-.6032877 1.0054925 3.7202739-6.2340533 1.7093151zm-20.8136939 5.6306849l-3.6197729-13.5739725-2.7148296.7038356-1.0054925-3.720274 2.7148296-.7038356-1.4076894-5.329041 3.9214206-1.1060274 1.4076894 5.329041 5.7313071-1.5082191s-.9049432.8043835-1.7093372 2.3126027c-.6032955 1.2065753-.6032955 2.3126027-.6032955 2.3126027l-2.4131819.7038356 2.6142804 9.8536986 2.4131819-.7038356s.402197.6032877 1.4076895 1.5082192c1.2065909 1.1060273 2.7148296 1.5082191 2.7148296 1.5082191l-9.4516291 2.4131507zm-10.2560231 2.8153424l-1.0054925-3.7202739 2.3126327-.6032877-2.6142804-9.8536985-2.3126327.6032876-1.0054925-3.7202739 6.133504-1.6087671 3.6197729 13.4734245 2.3126327-.6032876 1.0054924 3.7202739-8.4461366 2.3126027zm.1005492-24.3326025l1.0054925 3.8208219-3.8208714 1.0054794-1.0054925-3.8208219 3.8208714-1.0054794zm96.6278255-1.809863l-6.63625 1.709315-1.005493-3.7202739 2.312633-.6032877-1.508239-5.7312328c-.804394-3.0164384-2.312632-4.2230137-4.625265-3.6197261-1.30714.3016439-2.111534 1.1060274-2.513731 2.2120548-.402197 1.1060274-.402197 2.6142466.100549 4.5246575l1.206591 4.6252055 2.312633-.6032877 1.005492 3.720274-8.5466857 2.3126027-1.0054925-3.720274 2.3126322-.6032876-2.6142799-9.8536986-4.5247161 1.2065753-1.0054925-3.7202739 8.4461365-2.3126027.603296 2.3126027c.502746-2.0109589 1.910435-3.4186301 4.02197-3.9213698.603295-.2010959 1.20659-.3016439 1.709337-.3016439-.804394-.9049315-1.608788-1.809863-2.513731-2.6142465L60.891579 0 16.8510091 44.3416436C8.10322473 53.1898627 2.77411468 64.3506845.76312975 75.8131502l3.82087136-1.0054794 1.00549246 3.7202739-2.01098492.6032877 5.02746231 6.9378082.90494321-8.5465753-2.11153417.6032876-1.00549246-3.7202739 8.24503816-2.2120548 1.0054925 3.720274-2.1115342.6032876-1.7093372 15.0821917-3.31812509.9049315L.15983428 81.2427392C-1.04675668 97.7326021 4.5840011 114.825753 16.8510091 127.19315c13.0714021 13.171781 33.482899 18.60137 52.6878051 16.288767l-9.5521784-35.895616-22.3219327 6.032876-5.2285608-19.7073968 64.2509683-17.2942464 5.2285604 19.7073971-22.3219322 6.0328771 9.5521784 35.795068c5.9324055-2.714795 11.2615158-6.334521 15.7862318-10.859178 16.791724-17.093151 21.115342-42.8334245 12.367557-64.2501367z" fill="#010100" fill-rule="nonzero"/>
</svg>
